<?xml version="1.0" encoding="utf-8"?>
<?xml-stylesheet type="text/xsl" href="rss1.xsl"?>
<rss version="2.0" xmlns:atom="http://www.w3.org/2005/Atom" xmlns:content="http://purl.org/rss/1.0/modules/content/" xmlns:dc="http://purl.org/dc/elements/1.1/" xmlns:media="http://search.yahoo.com/mrss/">
<channel>
 <title>Getty</title>
 <link>http://www.gettyimg.com/</link>
 <atom:link href="http://www.gettyimg.com/" rel="self" type="application/rss+xml" />

 
                <item>
                <title><![CDATA[【HD Live Performances】FEED - Lewis Capaldi at Radio 1’s Big Weekend (28/5/23) (1080i) (Feed) (Not Full Version) [MAVERICK]]]></title>
                <link><![CDATA[https://sharemania.us/threads/lewis-capaldi-at-radio-1%E2%80%99s-big-weekend-28-5-23-1080i-feed-not-full-version-maverick.221967/]]></link>
                <description><![CDATA[<article>
<blockquote class="messageText SelectQuoteContainer ugc baseHtml">
<div style="text-align: center"><b>Lewis Capaldi at Radio 1’s Big Weekend (28/5/23) (1080i) (Feed) (Not Full Version) [MAVERICK]</b>​</div><img src="https://i.postimg.cc/ZRNP58WL/Lewis-Capaldi-at-Radio-1-s-Big-Weekend-28-5-23-1080i-Feed-Not-Full-Version-MAVERICK.jpg" class="bbCodeImage LbImage" alt="[​IMG]" data-url="https://i.postimg.cc/ZRNP58WL/Lewis-Capaldi-at-Radio-1-s-Big-Weekend-28-5-23-1080i-Feed-Not-Full-Version-MAVERICK.jpg" style="">
<div class="ToggleTriggerAnchor bbCodeSpoilerContainer">
<button type="button" class="button bbCodeSpoilerButton ToggleTrigger Tooltip JsOnly" data-target="> .SpoilerTarget"><span>Spoiler: <span class="SpoilerTitle">Download (Picture Breaks up alot):</span></span></button>
<div class="SpoilerTarget bbCodeSpoilerText">
<div class="bbCodeBlock bbCodeVfcHH HiddenContent">
<div class="attribution type">Hidden Content:</div>
<blockquote>You must either reply or click 'Like' to see the hidden information contained here.</blockquote>
</div></div>
</div><br>
<div style="text-align: center"><b>Enjoy this Feed of Lewis Capaldi at Radio 1’s Big Weekend (28/5/23) (1080i) (Feed) (Not Full Version) [MAVERICK]<br>
<br>
<span style="font-size: 26px">PLEASE READ BELOW!!</span><br>
<br>
<span style="color: rgb(255, 0, 0)"><span style="font-size: 26px">Please Note:<br>
</span></span></b><br>
<span style="color: rgb(255, 0, 0)"><b><span style="font-size: 26px">THIS IS NOT THE FULL VERSION BUT ITS THE ONLY FEED FROM Radio 1's Big Weekend 2023 that i was able to record due to this feed going live not long before the set finished hence half a recording, typical of the bbc</span></b><br>
<br>
<b><span style="font-size: 26px">also there maybe a few issues with the video breaking up but take it or leave it, it is a feed afterall it looks encrypted if u check the media info but i can tell you it isnt and because is a 4:2:2 feed it cant be muxed in mkv</span></b><br>
<br>
<b><span style="font-size: 26px">USE MPC-HC TO WATCH</span></b><br>
<br>
<b><span style="font-size: 26px">enjoy</span></b></span><br>
<br>
<span style="color: rgb(255, 0, 0)"><br>
<b><span style="font-size: 26px">NO COMPLAINING AS I HAVE EXPLAINED ABOVE THERE MAYBE ISSUES PLAYING BACK THE VIDEO FOR SOME REASON</span></b></span><br>
<br>
<span style="color: rgb(255, 0, 0)"><b><span style="font-size: 26px">IF THE BBC WENT LIVE WITH THIS SAT FEED BEFORE IT WAS DUE TO FINISH I WOULD HAVE RECORDED EVERY SET BUT THE BBC BEING THE BBC THEY DIDNT DO THAT</span></b><br>
</span><br>
<b><b><span style="font-size: 15px"><span style="color: #000000">New Content will only Be Uploaded from this Account <a href="https://sharemania.us/members/176676/" class="username" data-user="176676, @Maverick">@Maverick</a></span></span></b></b>​</div>
<div class="messageTextEndMarker">&nbsp;</div>
</blockquote>
</article>]]></description>
                <author><![CDATA[Maverick]]></author>
                </item>

                
                <item>
                <title><![CDATA[【Interviews / TV shows / Others】FEED - Britain's Got Talent: Series 16 Episode 9: Live Show 1 (29/5/23) (1080i) (Feed) [MAVERICK]]]></title>
                <link><![CDATA[https://sharemania.us/threads/britains-got-talent-series-16-episode-9-live-show-1-29-5-23-1080i-feed-maverick.221966/]]></link>
                <description><![CDATA[<article>
<blockquote class="messageText SelectQuoteContainer ugc baseHtml">
<div style="text-align: center"><b>Britain's Got Talent: Series 16 Episode 9: Live Show 1 (29/5/23) (1080i) (Feed) [MAVERICK]</b><br>
<img src="https://i.imgur.com/vjyGtQf.jpeg" class="bbCodeImage LbImage" alt="[​IMG]" data-url="https://i.imgur.com/vjyGtQf.jpeg" style="">​</div><b>Satellite Details:</b><br>
<div class="bbCodeBlock bbCodeVfcHH HiddenContent">
<div class="attribution type">Hidden Content:</div>
<blockquote>You must either reply or click 'Like' to see the hidden information contained here.</blockquote>
</div><img src="https://i.postimg.cc/SQz9WQjH/Britain-s-Got-Talent-Series-16-Episode-9-Live-Show-1-29-5-23-1080i-Feed-MAVERICK.jpg" class="bbCodeImage LbImage" alt="[​IMG]" data-url="https://i.postimg.cc/SQz9WQjH/Britain-s-Got-Talent-Series-16-Episode-9-Live-Show-1-29-5-23-1080i-Feed-MAVERICK.jpg" style=""><br>
<b>Airdate: 29/5/23</b><br>
<div class="ToggleTriggerAnchor bbCodeSpoilerContainer">
<button type="button" class="button bbCodeSpoilerButton ToggleTrigger Tooltip JsOnly" data-target="> .SpoilerTarget"><span>Spoiler: <span class="SpoilerTitle">Media Info:</span></span></button>
<div class="SpoilerTarget bbCodeSpoilerText">General<br>
Complete name : C:\Users\Maverick\Desktop\Britain's Got Talent: Series 16 Episode 9: Live Show 1 (29/5/23) (1080i) (Feed) [MAVERICK].mkv<br>
Format : Matroska<br>
Format version : Version 4<br>
File size : 34.0 GiB<br>
Duration : 2 h 22 min<br>
Overall bit rate mode : Variable<br>
Overall bit rate : 34.2 Mb/s<br>
Movie name : Britain's Got Talent: Series 16 Episode 9: Live Show 1 (29/5/23) (1080i) (Feed) [MAVERICK]<br>
Encoded date : UTC 2023-05-29 21:29:49<br>
Writing application : mkvmerge v74.0.0 ('You Oughta Know') 64-bit<br>
Writing library : libebml v1.4.4 + libmatroska v1.7.1<br>
<br>
Video<br>
ID : 1<br>
Format : MPEG Video<br>
Format version : Version 2<br>
Format profile : Main@High<br>
Format settings : CustomMatrix / BVOP<br>
Format settings, BVOP : Yes<br>
Format settings, Matrix : Custom<br>
Format settings, GOP : M=4, N=32<br>
Format settings, picture struc : Frame<br>
Codec ID : V_MPEG2<br>
Codec ID/Info : MPEG 1 or 2 Video<br>
Duration : 2 h 22 min<br>
Bit rate mode : Variable<br>
Bit rate : 33.7 Mb/s<br>
Maximum bit rate : 34.5 Mb/s<br>
Width : 1920 pixels<br>
Height : 1080 pixels<br>
Display aspect ratio : 16:9<br>
Active Format Description : Full frame 16:9 image<br>
Frame rate mode : Constant<br>
Frame rate : 25.000 FPS<br>
Color space : YUV<br>
Chroma subsampling : 4:2:0<br>
Bit depth : 8 bits<br>
Scan type : Interlaced<br>
Scan order : Top Field First<br>
Compression mode : Lossy<br>
Bits/(Pixel*Frame) : 0.650<br>
Stream size : 33.5 GiB (98%)<br>
Title : Britain's Got Talent: Series 16 Episode 9: Live Show 1 (29/5/23) (1080i) (Feed) [MAVERICK]<br>
Language : English<br>
Default : Yes<br>
Forced : No<br>
<br>
Audio #1<br>
ID : 2<br>
Format : MPEG Audio<br>
Format version : Version 1<br>
Format profile : Layer 2<br>
Codec ID : A_MPEG/L2<br>
Codec ID/Hint : MP2<br>
Duration : 2 h 22 min<br>
Bit rate mode : Constant<br>
Bit rate : 256 kb/s<br>
Channel(s) : 2 channels<br>
Sampling rate : 48.0 kHz<br>
Frame rate : 41.667 FPS (1152 SPF)<br>
Compression mode : Lossy<br>
Delay relative to video : -130 ms<br>
Stream size : 260 MiB (1%)<br>
Title : Stereo<br>
Language : English<br>
Default : Yes<br>
Forced : No<br>
<br>
Audio #2<br>
ID : 3<br>
Format : MPEG Audio<br>
Format version : Version 1<br>
Format profile : Layer 2<br>
Codec ID : A_MPEG/L2<br>
Codec ID/Hint : MP2<br>
Duration : 2 h 22 min<br>
Bit rate mode : Constant<br>
Bit rate : 256 kb/s<br>
Channel(s) : 2 channels<br>
Sampling rate : 48.0 kHz<br>
Frame rate : 41.667 FPS (1152 SPF)<br>
Compression mode : Lossy<br>
Delay relative to video : 350 ms<br>
Stream size : 260 MiB (1%)<br>
Title : Stereo<br>
Language : English<br>
Default : Yes<br>
Forced : No</div>
</div>
<div class="ToggleTriggerAnchor bbCodeSpoilerContainer">
<button type="button" class="button bbCodeSpoilerButton ToggleTrigger Tooltip JsOnly" data-target="> .SpoilerTarget"><span>Spoiler: <span class="SpoilerTitle">Download:</span></span></button>
<div class="SpoilerTarget bbCodeSpoilerText">
<div class="bbCodeBlock bbCodeVfcHH HiddenContent">
<div class="attribution type">Hidden Content:</div>
<blockquote>You must either reply or click 'Like' to see the hidden information contained here.</blockquote>
</div></div>
</div><br>
<div style="text-align: center"><b>DOWNLOAD LINK NOW LIVE</b><br>
<br>
<b>Please Note: This is an Unedited 1080i Feed, Enjoy <img src="styles/default/xenforo/smilies/big_smile-48.png" class="mceSmilie" alt=":)" title="Smile    :)"></b><br>
<br>
<b>Please Note This File Has Been uploaded to Gofile, because its free fast upload and download speeds Grab it while you can once it gets deleted i wont Reupload it as i delete my recordings from my harddrive's once they are uploaded!<br>
<br>
Please Credit Me Maverick if you are going to upload my files elsewhere!</b><br>
<br>
<b>REMEMBER I CAPPED AND UPLOADED THIS FIRST BEFORE ANYONE ELSE AND I WANT CREDIT FOR THIS CAP AND UPLOAD!!<br>
<br>
New Content will only Be Uploaded from this Account <a href="https://sharemania.us/members/176676/" class="username" data-user="176676, @Maverick">@Maverick</a></b>​</div>
<div class="messageTextEndMarker">&nbsp;</div>
</blockquote>
</article>]]></description>
                <author><![CDATA[Maverick]]></author>
                </item>

                
                <item>
                <title><![CDATA[【Interviews / TV shows / Others】FEED - Britain's Got Talent: Series 16 Episode 10: Live Show 2 (30/5/23) (1080i) (Feed) [MAVERICK]]]></title>
                <link><![CDATA[https://sharemania.us/threads/britains-got-talent-series-16-episode-10-live-show-2-30-5-23-1080i-feed-maverick.221965/]]></link>
                <description><![CDATA[<article>
<blockquote class="messageText SelectQuoteContainer ugc baseHtml">
<div style="text-align: center"><b>Britain's Got Talent: Series 16 Episode 10: Live Show 2 (30/5/23) (1080i) (Feed) [MAVERICK]</b><br>
<img src="https://i.imgur.com/vjyGtQf.jpeg" class="bbCodeImage LbImage" alt="[​IMG]" data-url="https://i.imgur.com/vjyGtQf.jpeg" style="">​</div><b>Satellite Details:</b><br>
<div class="bbCodeBlock bbCodeVfcHH HiddenContent">
<div class="attribution type">Hidden Content:</div>
<blockquote>You must either reply or click 'Like' to see the hidden information contained here.</blockquote>
</div><img src="https://i.postimg.cc/ZYw3xWmL/Britain-s-Got-Talent-Series-16-Episode-10-Live-Show-2-30-5-23-1080i-Feed-MAVERICK.jpg" class="bbCodeImage LbImage" alt="[​IMG]" data-url="https://i.postimg.cc/ZYw3xWmL/Britain-s-Got-Talent-Series-16-Episode-10-Live-Show-2-30-5-23-1080i-Feed-MAVERICK.jpg" style=""><b>Airdate: 30/5/23</b><br>
<div class="ToggleTriggerAnchor bbCodeSpoilerContainer">
<button type="button" class="button bbCodeSpoilerButton ToggleTrigger Tooltip JsOnly" data-target="> .SpoilerTarget"><span>Spoiler: <span class="SpoilerTitle">Media Info:</span></span></button>
<div class="SpoilerTarget bbCodeSpoilerText">General<br>
Complete name : C:\Users\Maverick\Desktop\Britain's Got Talent: Series 16 Episode 10: Live Show 2 (30/5/23) (1080i) (Feed) [MAVERICK].mkv<br>
Format : Matroska<br>
Format version : Version 4<br>
File size : 30.2 GiB<br>
Duration : 2 h 6 min<br>
Overall bit rate mode : Variable<br>
Overall bit rate : 34.2 Mb/s<br>
Movie name : Britain's Got Talent: Series 16 Episode 10: Live Show 2 (30/5/23) (1080i) (Feed) [MAVERICK]<br>
Encoded date : UTC 2023-05-31 14:14:50<br>
Writing application : mkvmerge v74.0.0 ('You Oughta Know') 64-bit<br>
Writing library : libebml v1.4.4 + libmatroska v1.7.1<br>
<br>
Video<br>
ID : 1<br>
Format : MPEG Video<br>
Format version : Version 2<br>
Format profile : Main@High<br>
Format settings : BVOP<br>
Format settings, BVOP : Yes<br>
Format settings, Matrix : Default<br>
Format settings, GOP : M=4, N=32<br>
Format settings, picture struc : Frame<br>
Codec ID : V_MPEG2<br>
Codec ID/Info : MPEG 1 or 2 Video<br>
Duration : 2 h 6 min<br>
Bit rate mode : Variable<br>
Bit rate : 33.7 Mb/s<br>
Maximum bit rate : 34.5 Mb/s<br>
Width : 1920 pixels<br>
Height : 1080 pixels<br>
Display aspect ratio : 16:9<br>
Active Format Description : Full frame 16:9 image<br>
Frame rate mode : Constant<br>
Frame rate : 25.000 FPS<br>
Color space : YUV<br>
Chroma subsampling : 4:2:0<br>
Bit depth : 8 bits<br>
Scan type : Interlaced<br>
Scan order : Top Field First<br>
Compression mode : Lossy<br>
Bits/(Pixel*Frame) : 0.650<br>
Stream size : 29.8 GiB (98%)<br>
Title : Britain's Got Talent: Series 16 Episode 10: Live Show 2 (30/5/23) (1080i) (Feed) [MAVERICK]<br>
Language : English<br>
Default : Yes<br>
Forced : No<br>
<br>
Audio #1<br>
ID : 2<br>
Format : MPEG Audio<br>
Format version : Version 1<br>
Format profile : Layer 2<br>
Codec ID : A_MPEG/L2<br>
Codec ID/Hint : MP2<br>
Duration : 2 h 6 min<br>
Bit rate mode : Constant<br>
Bit rate : 256 kb/s<br>
Channel(s) : 2 channels<br>
Sampling rate : 48.0 kHz<br>
Frame rate : 41.667 FPS (1152 SPF)<br>
Compression mode : Lossy<br>
Delay relative to video : -90 ms<br>
Stream size : 232 MiB (1%)<br>
Title : Stereo<br>
Language : English<br>
Default : Yes<br>
Forced : No<br>
<br>
Audio #2<br>
ID : 3<br>
Format : MPEG Audio<br>
Format version : Version 1<br>
Format profile : Layer 2<br>
Codec ID : A_MPEG/L2<br>
Codec ID/Hint : MP2<br>
Duration : 2 h 6 min<br>
Bit rate mode : Constant<br>
Bit rate : 256 kb/s<br>
Channel(s) : 2 channels<br>
Sampling rate : 48.0 kHz<br>
Frame rate : 41.667 FPS (1152 SPF)<br>
Compression mode : Lossy<br>
Delay relative to video : 382 ms<br>
Stream size : 232 MiB (1%)<br>
Title : Stereo<br>
Language : English<br>
Default : Yes<br>
Forced : No</div>
</div>
<div class="ToggleTriggerAnchor bbCodeSpoilerContainer">
<button type="button" class="button bbCodeSpoilerButton ToggleTrigger Tooltip JsOnly" data-target="> .SpoilerTarget"><span>Spoiler: <span class="SpoilerTitle">Download:</span></span></button>
<div class="SpoilerTarget bbCodeSpoilerText">
<div class="bbCodeBlock bbCodeVfcHH HiddenContent">
<div class="attribution type">Hidden Content:</div>
<blockquote>You must either reply or click 'Like' to see the hidden information contained here.</blockquote>
</div></div>
</div><br>
<div style="text-align: center"><b>DOWNLOAD LINK NOW LIVE</b><br>
<br>
<b>Please Note: This is an Unedited 1080i Feed, Enjoy <img src="styles/default/xenforo/smilies/big_smile-48.png" class="mceSmilie" alt=":)" title="Smile    :)"></b><br>
<br>
<b>Please Note This File Has Been uploaded to Gofile, because its free fast upload and download speeds Grab it while you can once it gets deleted i wont Reupload it as i delete my recordings from my harddrive's once they are uploaded!<br>
<br>
Please Credit Me Maverick if you are going to upload my files elsewhere!</b><br>
<br>
<b>REMEMBER I CAPPED AND UPLOADED THIS FIRST BEFORE ANYONE ELSE AND I WANT CREDIT FOR THIS CAP AND UPLOAD!!<br>
<br>
I WILL TRY TO RECORD EACH AND EVERY LIVE EPISODE WHEN POSSIBLE<br>
<br>
<b>New Content will only Be Uploaded from this Account <a href="https://sharemania.us/members/176676/" class="username" data-user="176676, @Maverick">@Maverick</a></b></b>​</div>
<div class="messageTextEndMarker">&nbsp;</div>
</blockquote>
</article>]]></description>
                <author><![CDATA[Maverick]]></author>
                </item>

                </channel></rss>